<svg width="185" height="86" viewBox="0 0 185 86" fill="none" xmlns="http://www.w3.org/2000/svg">
<path d="M2.9375 66V22.25H9.9375V66H2.9375ZM13.125 46.25V39.4375H17.3125C20.3542 39.4375 22 37.9583 22.25 35C22.25 34.75 22.25 34.5 22.25 34.25C21.9583 30.9583 20.3125 29.2292 17.3125 29.0625H13.125V22.25H17.875C25.4583 22.375 29.2708 26.3333 29.3125 34.125C29.3125 40.1667 27.3958 43.9375 23.5625 45.4375C21.9792 45.9792 20.0833 46.25 17.875 46.25C17.7917 46.25 16.2083 46.25 13.125 46.25ZM32.75 53.8125V33.25C32.75 31.0417 33.6875 28.7917 35.5625 26.5C38.0625 23.5 41.2292 21.9792 45.0625 21.9375V28.875C42.8958 28.9167 41.2708 30.0833 40.1875 32.375C39.8542 33.125 39.6875 33.75 39.6875 34.25V53.8125C39.6875 56.0625 40.8542 57.7292 43.1875 58.8125C43.8958 59.1458 44.5 59.3125 45 59.3125V66.3125C42.625 66.3125 40.25 65.4583 37.875 63.75C34.5 61.25 32.7917 57.9375 32.75 53.8125ZM48.4375 66.3125V59.3125C49.5208 59.3125 50.6458 58.8125 51.8125 57.8125C53.0625 56.6875 53.7083 55.3542 53.75 53.8125V34.25C53.75 33 53.2083 31.7917 52.125 30.625C51.0833 29.5 49.8542 28.9167 48.4375 28.875V21.9375C52.6458 21.9375 56.0208 23.75 58.5625 27.375C60.0208 29.4583 60.75 31.4167 60.75 33.25V53.8125C60.75 58.4375 58.6875 61.9792 54.5625 64.4375C52.3958 65.6875 50.3542 66.3125 48.4375 66.3125ZM65.75 66V22.25H72.75V66H65.75ZM75.9375 47.5625V41.3125H79.4375C83.0625 41.3125 85.0625 39.5833 85.4375 36.125C85.4792 35.75 85.5 35.3958 85.5 35.0625C85.5 31.5625 83.9167 29.5 80.75 28.875C80.1667 28.7917 79.5625 28.75 78.9375 28.75H75.9375V22.25H79.75C85.2917 22.375 89.0208 24.4375 90.9375 28.4375C91.7292 30.1042 92.125 32.0208 92.125 34.1875C92.0833 38.8125 90.6667 42.1667 87.875 44.25C90.0417 45.5 91.4167 47.7292 92 50.9375C92.0833 51.4792 92.1458 51.9792 92.1875 52.4375L93.25 66H86.75L85.8125 54.875C85.4792 51.375 84.5417 49.1667 83 48.25C82.0833 47.7917 80.9375 47.5625 79.5625 47.5625H75.9375ZM95.75 29.0625V22.25H122.812V29.0625H112.812V66H105.812V29.0625H95.75ZM126.438 66V22.25H149.188V29.125H133.438V40.75H143.312V47.75H133.438V59.0625H149.188V66H126.438ZM154.25 66V33.375H154.75L161.25 43.8125V66H154.25ZM154.25 26.75V22.25H160.062L182.062 57.5625V66H178.688L154.25 26.75ZM175.062 40.5V22.25H182.062V50.9375H181.562L175.062 40.5Z" fill="white"/>
<line x1="3" y1="81" x2="182" y2="81" stroke="white" stroke-width="2"/>
</svg>
